<?xml version="1.0" encoding="UTF-8"?>
<!DOCTYPE svg PUBLIC "-//W3C//DTD SVG 1.1//EN" "http://www.w3.org/Graphics/SVG/1.1/DTD/svg11.dtd">
<svg xmlns="http://www.w3.org/2000/svg" version="1.1" width="448px" height="512px" style="shape-rendering:geometricPrecision; text-rendering:geometricPrecision; image-rendering:optimizeQuality; fill-rule:evenodd; clip-rule:evenodd" xmlns:xlink="http://www.w3.org/1999/xlink">
<g><path style="opacity:1" fill="#fcfcfc" d="M 243.5,54.5 C 243.973,55.9063 244.973,56.573 246.5,56.5C 246.427,58.0269 247.094,59.0269 248.5,59.5C 248.738,61.4044 249.738,62.7377 251.5,63.5C 253.129,65.8577 254.295,68.5243 255,71.5C 255.5,122.166 255.667,172.832 255.5,223.5C 306.168,223.333 356.834,223.5 407.5,224C 412.299,224.896 416.299,227.063 419.5,230.5C 419.973,231.906 420.973,232.573 422.5,232.5C 422.427,234.027 423.094,235.027 424.5,235.5C 424.738,237.404 425.738,238.738 427.5,239.5C 432.926,250.778 432.759,262.111 427,273.5C 426.292,274.381 425.458,275.047 424.5,275.5C 423.094,275.973 422.427,276.973 422.5,278.5C 420.973,278.427 419.973,279.094 419.5,280.5C 416.299,283.937 412.299,286.104 407.5,287C 356.834,287.5 306.168,287.667 255.5,287.5C 255.667,338.168 255.5,388.834 255,439.5C 254.104,444.299 251.937,448.299 248.5,451.5C 247.094,451.973 246.427,452.973 246.5,454.5C 244.973,454.427 243.973,455.094 243.5,456.5C 242.106,458.708 240.106,460.208 237.5,461C 228.167,464.333 218.833,464.333 209.5,461C 206.894,460.208 204.894,458.708 203.5,456.5C 203.027,455.094 202.027,454.427 200.5,454.5C 200.573,452.973 199.906,451.973 198.5,451.5C 195.063,448.299 192.896,444.299 192,439.5C 191.5,388.834 191.333,338.168 191.5,287.5C 140.832,287.667 90.1656,287.5 39.5,287C 34.701,286.104 30.701,283.937 27.5,280.5C 27.0269,279.094 26.0269,278.427 24.5,278.5C 24.573,276.973 23.9063,275.973 22.5,275.5C 20.2918,274.106 18.7918,272.106 18,269.5C 14.6667,260.167 14.6667,250.833 18,241.5C 18.7918,238.894 20.2918,236.894 22.5,235.5C 23.9063,235.027 24.573,234.027 24.5,232.5C 26.0269,232.573 27.0269,231.906 27.5,230.5C 29.4044,230.262 30.7377,229.262 31.5,227.5C 33.8577,225.871 36.5243,224.705 39.5,224C 90.1656,223.5 140.832,223.333 191.5,223.5C 191.333,172.832 191.5,122.166 192,71.5C 192.896,66.701 195.063,62.701 198.5,59.5C 199.906,59.0269 200.573,58.0269 200.5,56.5C 202.027,56.573 203.027,55.9063 203.5,54.5C 205.404,54.2624 206.738,53.2624 207.5,51.5C 218.778,46.0738 230.111,46.2405 241.5,52C 242.381,52.7083 243.047,53.5416 243.5,54.5 Z"/></g>
<g><path style="opacity:0.788" fill="#606060" d="M 207.5,51.5 C 206.738,53.2624 205.404,54.2624 203.5,54.5C 204.262,52.7376 205.596,51.7376 207.5,51.5 Z"/></g>
<g><path style="opacity:0.288" fill="#151515" d="M 243.5,54.5 C 245.027,54.427 246.027,55.0937 246.5,56.5C 244.973,56.573 243.973,55.9063 243.5,54.5 Z"/></g>
<g><path style="opacity:0.663" fill="#181818" d="M 203.5,54.5 C 203.027,55.9063 202.027,56.573 200.5,56.5C 200.973,55.0937 201.973,54.427 203.5,54.5 Z"/></g>
<g><path style="opacity:0.667" fill="#1d1d1d" d="M 200.5,56.5 C 200.573,58.0269 199.906,59.0269 198.5,59.5C 198.427,57.9731 199.094,56.9731 200.5,56.5 Z"/></g>
<g><path style="opacity:0.288" fill="#171717" d="M 246.5,56.5 C 247.906,56.9731 248.573,57.9731 248.5,59.5C 247.094,59.0269 246.427,58.0269 246.5,56.5 Z"/></g>
<g><path style="opacity:0.953" fill="#5c5c5c" d="M 248.5,59.5 C 250.262,60.2623 251.262,61.5956 251.5,63.5C 249.738,62.7377 248.738,61.4044 248.5,59.5 Z"/></g>
<g><path style="opacity:0.788" fill="#606060" d="M 31.5,227.5 C 30.7377,229.262 29.4044,230.262 27.5,230.5C 28.2623,228.738 29.5956,227.738 31.5,227.5 Z"/></g>
<g><path style="opacity:0.288" fill="#151515" d="M 419.5,230.5 C 421.027,230.427 422.027,231.094 422.5,232.5C 420.973,232.573 419.973,231.906 419.5,230.5 Z"/></g>
<g><path style="opacity:0.663" fill="#181818" d="M 27.5,230.5 C 27.0269,231.906 26.0269,232.573 24.5,232.5C 24.9731,231.094 25.9731,230.427 27.5,230.5 Z"/></g>
<g><path style="opacity:0.667" fill="#1d1d1d" d="M 24.5,232.5 C 24.573,234.027 23.9063,235.027 22.5,235.5C 22.427,233.973 23.0937,232.973 24.5,232.5 Z"/></g>
<g><path style="opacity:0.288" fill="#171717" d="M 422.5,232.5 C 423.906,232.973 424.573,233.973 424.5,235.5C 423.094,235.027 422.427,234.027 422.5,232.5 Z"/></g>
<g><path style="opacity:0.953" fill="#5c5c5c" d="M 424.5,235.5 C 426.262,236.262 427.262,237.596 427.5,239.5C 425.738,238.738 424.738,237.404 424.5,235.5 Z"/></g>
<g><path style="opacity:0.288" fill="#0d0d0d" d="M 22.5,275.5 C 23.9063,275.973 24.573,276.973 24.5,278.5C 23.0937,278.027 22.427,277.027 22.5,275.5 Z"/></g>
<g><path style="opacity:0.28" fill="#0a0a0a" d="M 424.5,275.5 C 424.573,277.027 423.906,278.027 422.5,278.5C 422.427,276.973 423.094,275.973 424.5,275.5 Z"/></g>
<g><path style="opacity:0.286" fill="#0b0b0b" d="M 24.5,278.5 C 26.0269,278.427 27.0269,279.094 27.5,280.5C 25.9731,280.573 24.9731,279.906 24.5,278.5 Z"/></g>
<g><path style="opacity:0.28" fill="#0c0c0c" d="M 422.5,278.5 C 422.027,279.906 421.027,280.573 419.5,280.5C 419.973,279.094 420.973,278.427 422.5,278.5 Z"/></g>
<g><path style="opacity:0.288" fill="#0d0d0d" d="M 198.5,451.5 C 199.906,451.973 200.573,452.973 200.5,454.5C 199.094,454.027 198.427,453.027 198.5,451.5 Z"/></g>
<g><path style="opacity:0.28" fill="#0a0a0a" d="M 248.5,451.5 C 248.573,453.027 247.906,454.027 246.5,454.5C 246.427,452.973 247.094,451.973 248.5,451.5 Z"/></g>
<g><path style="opacity:0.286" fill="#0b0b0b" d="M 200.5,454.5 C 202.027,454.427 203.027,455.094 203.5,456.5C 201.973,456.573 200.973,455.906 200.5,454.5 Z"/></g>
<g><path style="opacity:0.28" fill="#0c0c0c" d="M 246.5,454.5 C 246.027,455.906 245.027,456.573 243.5,456.5C 243.973,455.094 244.973,454.427 246.5,454.5 Z"/></g>
</svg>
